<svg width="17" height="16" viewBox="0 0 17 16" fill="none" xmlns="http://www.w3.org/2000/svg">
<path fill-rule="evenodd" clip-rule="evenodd" d="M8.74013 0C6.56744 0 6.29477 0.0095001 5.44143 0.0483338C4.58975 0.0873342 4.00841 0.222169 3.49974 0.420004C2.97357 0.62434 2.52723 0.897676 2.08256 1.34251C1.63756 1.78719 1.36422 2.23352 1.15922 2.75953C0.960882 3.26837 0.825881 3.84987 0.787547 4.70122C0.74938 5.55456 0.73938 5.82739 0.73938 8.00008C0.73938 10.1728 0.749047 10.4446 0.787714 11.298C0.826881 12.1496 0.961716 12.731 1.15938 13.2396C1.36389 13.7658 1.63722 14.2121 2.08206 14.6568C2.52657 15.1018 2.9729 15.3758 3.49874 15.5802C4.00775 15.778 4.58925 15.9128 5.44076 15.9518C6.2941 15.9907 6.56661 16.0002 8.73913 16.0002C10.912 16.0002 11.1838 15.9907 12.0372 15.9518C12.8888 15.9128 13.4708 15.778 13.9799 15.5802C14.5059 15.3758 14.9515 15.1018 15.396 14.6568C15.841 14.2121 16.1144 13.7658 16.3194 13.2398C16.516 12.731 16.651 12.1495 16.691 11.2981C16.7294 10.4448 16.7394 10.1728 16.7394 8.00008C16.7394 5.82739 16.7294 5.55472 16.691 4.70138C16.651 3.84971 16.516 3.26837 16.3194 2.7597C16.1144 2.23352 15.841 1.78719 15.396 1.34251C14.951 0.897509 14.506 0.624173 13.9794 0.420004C13.4693 0.222169 12.8877 0.0873342 12.036 0.0483338C11.1827 0.0095001 10.911 0 8.73763 0H8.74013ZM8.02246 1.44168C8.16181 1.44146 8.31172 1.44153 8.47349 1.4416L8.74013 1.44168C10.8762 1.44168 11.1293 1.44935 11.9728 1.48768C12.7528 1.52335 13.1762 1.65368 13.4582 1.76319C13.8315 1.90819 14.0977 2.08152 14.3775 2.36152C14.6575 2.64153 14.8309 2.9082 14.9762 3.28153C15.0857 3.5632 15.2162 3.98654 15.2517 4.76655C15.29 5.60989 15.2984 5.86323 15.2984 7.99825C15.2984 10.1333 15.29 10.3866 15.2517 11.23C15.216 12.01 15.0857 12.4333 14.9762 12.715C14.8312 13.0883 14.6575 13.3541 14.3775 13.634C14.0975 13.914 13.8317 14.0873 13.4582 14.2323C13.1765 14.3423 12.7528 14.4723 11.9728 14.508C11.1295 14.5463 10.8762 14.5547 8.74013 14.5547C6.60394 14.5547 6.35077 14.5463 5.50743 14.508C4.72742 14.472 4.30408 14.3416 4.02191 14.2321C3.64858 14.0871 3.38191 13.9138 3.1019 13.6338C2.8219 13.3538 2.64857 13.0878 2.50323 12.7143C2.39373 12.4326 2.26323 12.0093 2.22773 11.2293C2.18939 10.3859 2.18173 10.1326 2.18173 7.99625C2.18173 5.85989 2.18939 5.60789 2.22773 4.76455C2.2634 3.98454 2.39373 3.5612 2.50323 3.2792C2.64823 2.90586 2.8219 2.63919 3.1019 2.35919C3.38191 2.07919 3.64858 1.90585 4.02191 1.76052C4.30392 1.65052 4.72742 1.52052 5.50743 1.48468C6.24544 1.45135 6.53144 1.44135 8.02246 1.43968V1.44168Z" fill="white"/>
<path d="M12.0504 3.72972C12.0504 3.19955 12.4804 2.77005 13.0104 2.77005C13.5404 2.77005 13.9704 3.19972 13.9704 3.72972C13.9704 4.25973 13.5404 4.68973 13.0104 4.68973C12.4804 4.68973 12.0504 4.25973 12.0504 3.72972Z" fill="white"/>
<path d="M11.4068 8.00007C11.4068 6.52722 10.2127 5.33337 8.74006 5.33337C7.26721 5.33337 6.07336 6.52722 6.07336 8.00007C6.07336 9.47275 7.26721 10.6668 8.74006 10.6668C10.2127 10.6668 11.4068 9.47275 11.4068 8.00007Z" fill="white"/>
</svg>
