<svg width="17" height="12" viewBox="0 0 17 12" fill="none" xmlns="http://www.w3.org/2000/svg">
<path fill-rule="evenodd" clip-rule="evenodd" d="M15.6941 0.843825C16.1658 1.33183 16.3197 2.44001 16.3197 2.44001C16.3197 2.44001 16.4771 3.74168 16.4771 5.04285V6.2631C16.4771 7.56477 16.3197 8.86594 16.3197 8.86594C16.3197 8.86594 16.1658 9.97412 15.6941 10.4621C15.1549 11.0394 14.557 11.0991 14.2191 11.1328C14.1819 11.1365 14.1479 11.1399 14.1174 11.1436C11.9151 11.3064 8.60823 11.3115 8.60823 11.3115C8.60823 11.3115 4.51643 11.2733 3.25741 11.1496C3.19776 11.1383 3.12545 11.1294 3.04356 11.1194C2.64476 11.0705 2.01881 10.9937 1.52184 10.4621C1.0502 9.97412 0.896757 8.86594 0.896757 8.86594C0.896757 8.86594 0.73938 7.56477 0.73938 6.2631V5.04285C0.73938 3.74168 0.896757 2.44001 0.896757 2.44001C0.896757 2.44001 1.0502 1.33183 1.52184 0.843825C2.06226 0.265719 2.66073 0.206717 2.99871 0.173396C3.03536 0.169783 3.06894 0.166472 3.09905 0.162835C5.30135 0 8.60479 0 8.60479 0H8.61167C8.61167 0 11.9151 0 14.1174 0.162835C14.1475 0.166478 14.1811 0.169793 14.2178 0.173412C14.5555 0.206736 15.1542 0.265813 15.6941 0.843825ZM6.98279 3.22314L6.98328 7.7418L11.2349 5.49026L6.98279 3.22314Z" fill="white"/>
</svg>
